# xmcd
#
# Track frame offsets:
#	150
#	22953
#	35329
#	49465
#	62893
#	79769
#	92897
#	115699
#	128077
#	142212
#	155638
#	172514
#	185641
#	205616
#
# Disc length: 3010 seconds
#
# Revision: 1
# Processed by: cddbd v1.5.2PL0 Copyright (c) Steve Scherf et al.
# Submitted via: audiograbber 1.83.01
#
DISCID=bc0bc00e
DTITLE=Country Chartbusters vol. 9 - CBCDG20009
DYEAR=1900
DGENRE=Karaoke
TTITLE0=McGraw, Tim - Everywhere
TTITLE1=Rimes, LeAnn - I Want To Be A Cowboy's Sweetheart
TTITLE2=Raybon Brothers, The - Way She's Looking, The
TTITLE3=River Road - Nickajack
TTITLE4=Kinleys, The - Please
TTITLE5=Duets/Engvall, Bill and John Michael Montgomery - Warning Signs
TTITLE6=McGraw, Tim - Everywhere w/ vocals
TTITLE7=Rimes, LeAnn - I Want To Be A Cowboy's Sweetheart w/ vocals
TTITLE8=Raybon Brothers, The - Way She's Looking, The w/ vocals
TTITLE9=River Road - Nickajack w/ vocals
TTITLE10=Kinleys, The - Please w/ vocals
TTITLE11=Duets/Engvall, Bill and John Michael Montgomery - Warning Signs w/ vocal
TTITLE11=s
TTITLE12=John, Elton - Candle In The Wind (Goodbye England's Rose)
TTITLE13=John, Elton - Candle In The Wind (Goodbye England's Rose) w/ vocals
EXTD=
EXTT0=
EXTT1=
EXTT2=
EXTT3=
EXTT4=
EXTT5=
EXTT6=
EXTT7=
EXTT8=
EXTT9=
EXTT10=
EXTT11=
EXTT12=
EXTT13=
PLAYORDER=
